<?xml version="1.0" encoding="UTF-8"?>
<svg width="40" height="40" version="1.1" viewBox="0 0 10.583 10.583" xmlns="http://www.w3.org/2000/svg">
 <path d="m4.1194 9.553c-0.36009-0.22867-0.93754-0.59934-1.2832-0.82371-0.34569-0.22437-0.88189-0.55906-1.1916-0.74375l-0.56305-0.3358v-4.2275l0.19641 0.11823c0.10803 0.065026 0.25897 0.16123 0.33544 0.21378 0.076465 0.052552 0.15133 0.095549 0.16636 0.095549 0.037142 0 1.755 1.075 2.4837 1.5542l0.58924 0.38752v2.0932c0 1.1512-0.017677 2.0911-0.039283 2.0886-0.021605-0.0024979-0.3339-0.19164-0.69399-0.42031zm1.3103-1.6802 9.009e-4 -2.1113 0.35264-0.22943c1.027-0.66816 3.2736-2.0489 3.3338-2.0489 0.016758 0 0.03047 0.93905 0.03047 2.0868v2.0868l-0.58924 0.35674c-0.32408 0.19621-0.8485 0.52673-1.1654 0.73449-0.46428 0.30441-1.5852 1.0112-1.8987 1.1972-0.051942 0.030823-0.065285-0.39741-0.06457-2.0724zm-1.9238-3.6005c-0.87032-0.54469-1.7011-1.057-1.8462-1.1385-0.1451-0.081498-0.26385-0.16382-0.26388-0.18293-2.93e-5 -0.019115 0.20618-0.15822 0.45824-0.30913 0.25206-0.15091 0.71756-0.44386 1.0344-0.65101 0.63031-0.41205 1.9638-1.2516 2.1248-1.3378 0.126-0.067432 0.11143-0.074896 1.2182 0.62392 0.48471 0.30606 1.2816 0.80837 1.7709 1.1162 0.86225 0.54259 0.88585 0.56209 0.76857 0.63498-2.406 1.4953-3.6224 2.237-3.6661 2.2352-0.0090956-3.666e-4 -0.72862-0.44632-1.5989-0.99101z" stroke-width=".052377"/>
</svg>
