<?xml version="1.0" encoding="utf-8"?>
<!-- Generator: Adobe Illustrator 26.2.1, SVG Export Plug-In . SVG Version: 6.00 Build 0)  -->
<svg version="1.1" xmlns="http://www.w3.org/2000/svg" xmlns:xlink="http://www.w3.org/1999/xlink" x="0px" y="0px" width="40px"
	 height="40px" viewBox="0 0 40 40" enable-background="new 0 0 40 40" xml:space="preserve">
<g id="Fläche" display="none">
	<rect display="inline" fill="#FF7E90" width="40" height="40"/>
</g>
<g id="Rahmen" display="none">
</g>
<g id="Icon">
	<path d="M36,28v-3h-6v-2h-7.1c-2.1,0-3.9,1.7-3.9,3.9V29h-7.5C7.9,29,5,26.1,5,22.5S7.9,16,11.5,16h11c4.1,0,7.5-3.4,7.5-7.5V4h-1
		v4.5c0,3.6-2.9,6.5-6.5,6.5h-11C7.4,15,4,18.4,4,22.5S7.4,30,11.5,30H19v2.1c0,2.1,1.7,3.9,3.9,3.9H30v-2h6v-3h-6v-3H36z M35,26v1
		h-5v-1H35z M35,32v1h-5v-1H35z M29,31v3v1h-6.1c-1.6,0-2.9-1.3-2.9-2.9V30v-1v-2.1c0-1.6,1.3-2.9,2.9-2.9H29v1v3V31z"/>
</g>
</svg>
