<svg xmlns="http://www.w3.org/2000/svg" viewBox="0 0 40 40" xmlns:v="https://vecta.io/nano"><path fill="#9d9d9c" d="M4.21 35.08L12.26 27h23.4l-8.44 8.52H5.05l-.84-.44z"/><path d="M26.39 27h.96v1h-.96zM12 12.64h1v.96h-1zM20.65 27h.96v1h-.96zm-2.87 0h.96v1h-.96zm-2.87 0h.96v1h-.96zm8.61 0h.96v1h-.96zM12 27h1v1h-1zm-2.343 2.629l.707-.707.707.707-.707.707zm-3.67 3.684l.707-.707.707.707-.707.707zm1.84-1.842l.707-.707.707.707-.707.707zM12 24.13h1v.96h-1zm0-5.74h1v.96h-1zm0 2.87h1v.96h-1zm0-5.75h1v.96h-1zM32.13 27h.96v1h-.96zm-2.87 0h.96v1h-.96zM12 6.9h1v.96h-1zm0 2.87h1v.96h-1z"/><path fill="#f69000" opacity=".65" d="M4.5 12.5h23v23h-23z"/><path d="M12.29 4L4 12.29V36h23.71L36 27.71V4H12.29zM35 27.29l-7 7V12.71l7-7v21.58zM5 34.58V13h22v22H5.41L5 34.59zM34.29 5l-7 7H5.71l7-7H34.3z"/></svg>