<svg xmlns="http://www.w3.org/2000/svg" viewBox="0 0 40 40" xmlns:v="https://vecta.io/nano"><path fill="#9d9d9c" d="M4.21 35.08L12.26 27h23.4l-8.44 8.52H5.05l-.84-.44z"/><path fill="#f69000" opacity=".65" d="M4.5 12.67l8-8.17.5.03v23.22l-7.78 7.74-.64.13-.08-22.95z"/><path d="M35 27h.5v1H35zm-1.91 1h-.96v-1h.96v1zm-2.87 0h-.96v-1h.96v1zm-2.87 0h-.96v-1h.96v1zm-2.87 0h-.96v-1h.96v1zm-2.87 0h-.96v-1h.96v1zm-2.87 0h-.96v-1h.96v1zm-2.87 0h-.96v-1h.96v1zM12 27h1v1h-1zm1-1.92h-1v-.96h1v.96zm0-2.87h-1v-.96h1v.96zm0-2.87h-1v-.96h1v.96zm0-2.87h-1v-.96h1v.96zm0-2.87h-1v-.96h1v.96zm0-2.87h-1v-.96h1v.96zm0-2.87h-1V6.9h1v.96zM12 4.5h1V5h-1zM4.85 35.85l-.71-.71.71-.71.71.71-.71.71zm1.84-1.84l-.71-.71.71-.71.71.71-.71.71zm1.84-1.84l-.71-.71.71-.71.71.71-.71.71zm1.84-1.84l-.71-.71.71-.71.71.71-.71.71zm16.778-18.185l7.997-7.997.707.707-7.997 7.997z"/><path d="M28 35.5h-1V13H4.5v-1H28v23.5z"/><path d="M27.71 36H4V12.29L12.29 4H36v23.71L27.71 36zM5 35h22.29L35 27.29V5H12.71L5 12.71V35z"/></svg>