<svg xmlns="http://www.w3.org/2000/svg" width="40" height="40" xmlns:v="https://vecta.io/nano"><path d="M29.9 11.3c-1-3.6-3.9-6.2-7.4-7-.9-.2-1.7-.3-2.5-.3C14.4 4 9.8 8.5 9.8 14c0 2.5 1 4.8 2.6 6.6h.1a9.76 9.76 0 0 1 2.4 6h0V29h10.2v-2.6c.2-2.3 1.1-4.3 2.6-5.9h0c2.1-2.3 3.1-5.6 2.2-9.2zm-4.2 10.3c-.9 1.4-1.4 3.1-1.6 4.8h0 0V28h-8.2v-1.4-1h-.1c-.3-2.1-1.2-4.1-2.6-5.7l-.3-.4h-.1a8.93 8.93 0 0 1-2-5.6c0-2.4 1-4.7 2.7-6.4C15.2 5.9 17.5 5 20 5a8.33 8.33 0 0 1 2.2.3c3.2.7 5.8 3.2 6.7 6.3.8 3 .1 6-2 8.3l-1.4 1.7h.2zM16.3 33c0 1.7 1.3 3 3 3h1.5c1.7 0 3-1.3 3-3v-2h-7.5v2zm1-1h5.5v1c0 1.1-.9 2-2 2h-1.5c-1.1 0-2-.9-2-2v-1zm-4.2-18.1h1c0-3 2.5-5.4 5.6-5.4v-1c-3.6 0-6.6 2.9-6.6 6.4z"/></svg>