<?xml version="1.0" encoding="utf-8"?>
<!-- Generator: Adobe Illustrator 26.2.1, SVG Export Plug-In . SVG Version: 6.00 Build 0)  -->
<svg version="1.1" xmlns="http://www.w3.org/2000/svg" xmlns:xlink="http://www.w3.org/1999/xlink" x="0px" y="0px" width="40px"
	 height="40px" viewBox="0 0 40 40" enable-background="new 0 0 40 40" xml:space="preserve">
<g id="Fläche" display="none">
	<rect display="inline" fill="#FF7E90" width="40" height="40"/>
</g>
<g id="Rahmen" display="none">
</g>
<g id="Icon">
	<g>
		<path d="M15.4,31.2c0,2.6,2.1,4.6,4.6,4.7c2.6,0,4.6-2.1,4.6-4.7H20H15.4z"/>
		<path d="M20.4,4.1c-0.1,0-0.3,0-0.4,0c-0.1,0-0.3,0-0.4,0c-5.4,0.2-9.8,4.7-9.9,10.1c-0.1,3.2,1.3,6.1,3.6,8.1
			c1,0.8,1.5,2,1.5,3.3v1.7h10.3v-1.7c0-1.3,0.6-2.5,1.5-3.3c2.3-1.9,3.7-4.8,3.6-8.1C30.2,8.8,25.8,4.3,20.4,4.1z"/>
	</g>
</g>
</svg>
