<svg xmlns="http://www.w3.org/2000/svg" width="40" height="40" viewBox="0 0 40 40" fill="#1d1d1b" xmlns:v="https://vecta.io/nano"><path d="M36.5 23v-6h-5.3c-.3-1-.7-2-1.2-2.9l3.8-3.8-4.2-4.2-3.8 3.9A13.9 13.9 0 0 0 23 8.8V3.5h-6v5.3c-1 .3-2 .7-2.9 1.2l-3.8-3.8-4.2 4.2 3.8 3.8L8.8 17H3.5v6h5.3c.3 1 .7 2 1.2 2.9l-3.8 3.8 4.2 4.2 3.8-3.8c.9.5 1.9.9 2.9 1.2v5.3H23v-5.3c1-.3 2-.7 2.9-1.2l3.8 3.8 4.2-4.2-3.9-3.9c.5-.9.9-1.9 1.2-2.9h5.3zm-6.2-.6c-.3 1.2-.7 2.3-1.4 3.3l-.2.3 3.6 3.6-2.8 2.8-3.5-3.7-.3.2c-1 .6-2.1 1.1-3.3 1.4l-.4.1v5.1h-4v-5.1l-.4-.1c-1.2-.3-2.3-.7-3.3-1.4l-.3-.2-3.6 3.6-2.8-2.8 3.6-3.6-.2-.3c-.6-1-1.1-2.1-1.4-3.3V22H4.5v-4h5.1l.1-.4c.3-1.2.7-2.3 1.4-3.3l.2-.3-3.6-3.6 2.8-2.8 3.6 3.6.3-.2c1-.6 2.1-1.1 3.3-1.4h.3V4.5h4v5.1l.4.1c1.2.3 2.3.7 3.3 1.4l.3.2 3.6-3.6 2.8 2.8-3.7 3.5.2.3c.6 1 1.1 2.1 1.4 3.3l.1.4h5.1v4h-5.1l-.1.4zM20 13.5a6.49 6.49 0 0 0-6.5 6.5 6.49 6.49 0 0 0 6.5 6.5 6.49 6.49 0 0 0 6.5-6.5 6.49 6.49 0 0 0-6.5-6.5zm0 12c-3 0-5.5-2.5-5.5-5.5s2.5-5.5 5.5-5.5 5.5 2.5 5.5 5.5-2.5 5.5-5.5 5.5z"/></svg>