<?xml version="1.0" encoding="utf-8"?>
<!-- Generator: Adobe Illustrator 26.2.1, SVG Export Plug-In . SVG Version: 6.00 Build 0)  -->
<svg version="1.1" xmlns="http://www.w3.org/2000/svg" xmlns:xlink="http://www.w3.org/1999/xlink" x="0px" y="0px" width="40px"
	 height="40px" viewBox="0 0 40 40" enable-background="new 0 0 40 40" xml:space="preserve">
<g id="Fläche" display="none">
	<rect display="inline" fill="#FF7E90" width="40" height="40"/>
</g>
<g id="Rahmen" display="none">
</g>
<g id="Icon">
	<g>
		<polygon points="14,33 7,33 7,26 6,26 6,34 14,34 14,37 19,33.5 14,30 		"/>
		<path d="M29,20c-1.4-3.6-4.9-6.1-9-6.1s-7.6,2.5-9,6.1c1.4,3.6,4.9,6.1,9,6.1S27.6,23.6,29,20z M20,25.1c-3.5,0-6.5-2-7.9-5.1
			c1.4-3.1,4.5-5.1,7.9-5.1s6.5,2,7.9,5.1C26.5,23.1,23.5,25.1,20,25.1z"/>
		<polygon points="7,7 14,7 14,6 6,6 6,14 7,14 		"/>
		<polygon points="26,6 26,3 21,6.5 26,10 26,7 33,7 33,14 34,14 34,6 		"/>
		<polygon points="33,33 26,33 26,34 34,34 34,26 33,26 		"/>
		<path d="M20,17c-1.7,0-3,1.3-3,3s1.3,3,3,3s3-1.3,3-3S21.7,17,20,17z M20,22c-1.1,0-2-0.9-2-2c0-1.1,0.9-2,2-2s2,0.9,2,2
			C22,21.1,21.1,22,20,22z"/>
	</g>
</g>
</svg>
