<?xml version="1.0" encoding="utf-8"?>
<!-- Generator: Adobe Illustrator 26.2.1, SVG Export Plug-In . SVG Version: 6.00 Build 0)  -->
<svg version="1.1" xmlns="http://www.w3.org/2000/svg" xmlns:xlink="http://www.w3.org/1999/xlink" x="0px" y="0px" width="40px"
	 height="40px" viewBox="0 0 40 40" enable-background="new 0 0 40 40" xml:space="preserve">
<g id="Fläche" display="none">
	<rect display="inline" fill="#FF7E90" width="40" height="40"/>
</g>
<g id="Rahmen" display="none">
</g>
<g id="Icon">
	<g>
		<polygon points="33,25 33,33 7,33 7,7 15,7 15,6 6,6 6,34 34,34 34,25 		"/>
		<path d="M19.7,27.6l8-10.7H23C23.3,11.4,27.9,7,33.5,7V6H28c-6.2,0-11.4,4.8-11.9,10.9h-4.4L19.7,27.6z M17,17.9l0-0.5
			C17.3,11.6,22.2,7,28,7h0.8c-4,1.8-6.8,5.8-6.8,10.4l0,0.5h3.7l-6,8l-6-8H17z"/>
	</g>
</g>
</svg>
