<?xml version="1.0" encoding="utf-8"?>
<!-- Generator: Adobe Illustrator 26.2.1, SVG Export Plug-In . SVG Version: 6.00 Build 0)  -->
<svg version="1.1" xmlns="http://www.w3.org/2000/svg" xmlns:xlink="http://www.w3.org/1999/xlink" x="0px" y="0px" width="40px"
	 height="40px" viewBox="0 0 40 40" enable-background="new 0 0 40 40" xml:space="preserve">
<g id="Fläche" display="none">
	<rect display="inline" fill="#FF7E90" width="40" height="40"/>
</g>
<g id="Rahmen" display="none">
</g>
<g id="Icon">
	<g>
		<path d="M26.8,18.8c0.8-3.2-1.2-6.5-4.4-7.3c-0.5-0.1-1-0.2-1.4-0.2c-2.7,0-5.1,1.8-5.8,4.6c-0.8,3.2,1.2,6.5,4.4,7.3
			c0.5,0.1,1,0.2,1.4,0.2C23.7,23.4,26.2,21.6,26.8,18.8z M21,22.4c-0.4,0-0.8,0-1.2-0.1c-1.3-0.3-2.4-1.1-3.1-2.3
			c-0.7-1.1-0.9-2.5-0.6-3.8c0.6-2.2,2.5-3.8,4.8-3.8c0.4,0,0.8,0,1.2,0.1c1.3,0.3,2.4,1.1,3.1,2.3c0.7,1.1,0.9,2.5,0.6,3.8
			C25.3,20.8,23.3,22.4,21,22.4z"/>
		<path d="M29.5,20.3c-0.9,2.7-3,4.8-5.7,5.7l6.5,6.5l5.7-5.7L29.5,20.3z M25.6,26.3c1.8-0.9,3.3-2.4,4.2-4.2l4.7,4.7L30.3,31
			L25.6,26.3z"/>
		<path d="M4,13.4v8h8.9c-0.6-1.2-0.9-2.6-0.9-4c0-1.4,0.3-2.8,0.9-4H4z M11.5,20.4H5v-6h6.5c-0.3,1-0.5,2-0.5,3
			C11,18.4,11.2,19.4,11.5,20.4z"/>
		<rect x="20" y="16.4" width="2" height="2"/>
	</g>
</g>
</svg>
