<svg xmlns="http://www.w3.org/2000/svg" viewBox="0 0 40 40" xmlns:v="https://vecta.io/nano"><path fill="#9d9d9c" d="M4.21 35.08L12.26 27h23.4l-8.44 8.52H5.05l-.84-.44z"/><path fill="#f69000" opacity=".65" d="M35.31 27.97H11.98v-23l.85-.47h22.83v23l-.35.47z"/><path d="M17.78 27h.96v1h-.96zm2.87 0h.96v1h-.96zm-5.74 0h.96v1h-.96zm17.22 0h.96v1h-.96zm-8.61 0h.96v1h-.96zm5.74 0h.96v1h-.96zM12 27h1v1h-1zm0-2.87h1v.96h-1zm0-14.36h1v.96h-1zm0 5.74h1v.96h-1zm0 5.75h1v.96h-1zM12 6.9h1v.96h-1zm0 11.49h1v.96h-1zM5.987 33.313l.707-.707.707.707-.707.707zm1.84-1.842l.707-.707.707.707-.707.707zm1.83-1.842l.707-.707.707.707-.707.707zM12.29 4L4 12.29V36h23.71L36 27.71V4H12.29zM35 27.29l-7 7V12.71l7-7v21.58zM5 34.58V13h7v.6h1V13h14v14h-.61v1H27v7H5.41L5 34.59zM34.29 5l-7 7H5.71l7-7H34.3z"/></svg>