<?xml version="1.0" encoding="utf-8"?>
<!-- Generator: Adobe Illustrator 26.2.1, SVG Export Plug-In . SVG Version: 6.00 Build 0)  -->
<svg version="1.1" xmlns="http://www.w3.org/2000/svg" xmlns:xlink="http://www.w3.org/1999/xlink" x="0px" y="0px" width="40px"
	 height="40px" viewBox="0 0 40 40" enable-background="new 0 0 40 40" xml:space="preserve">
<g id="Fläche" display="none">
	<rect display="inline" fill="#FF7E90" width="40" height="40"/>
</g>
<g id="Rahmen" display="none">
</g>
<g id="Icon">
	<g>
		<path d="M24,4.3h-8v8h8V4.3z M23,11.3h-6v-6h6V11.3z"/>
		<path d="M31.5,23.7L30.8,23c-6,6-15.6,6-21.6,0l-0.7,0.7c3.2,3.2,7.3,4.8,11.5,4.8S28.3,26.9,31.5,23.7z"/>
		<path d="M26.7,18.7L25.9,18c-3.3,3.3-8.6,3.3-11.9,0l-0.7,0.7c1.8,1.8,4.2,2.8,6.7,2.8S24.8,20.5,26.7,18.7z"/>
		<path d="M35.2,28.9c-8.7,7.7-21.7,7.7-30.4,0l-0.7,0.7c4.5,4,10.2,6.1,15.8,6.1c5.7,0,11.3-2,15.8-6.1L35.2,28.9z"/>
	</g>
</g>
</svg>
