<?xml version="1.0" encoding="utf-8"?>
<!-- Generator: Adobe Illustrator 26.2.1, SVG Export Plug-In . SVG Version: 6.00 Build 0)  -->
<svg version="1.1" xmlns="http://www.w3.org/2000/svg" xmlns:xlink="http://www.w3.org/1999/xlink" x="0px" y="0px" width="40px"
	 height="40px" viewBox="0 0 40 40" enable-background="new 0 0 40 40" xml:space="preserve">
<g id="Fläche" display="none">
	<rect display="inline" fill="#FF7E90" width="40" height="40"/>
</g>
<g id="Rahmen" display="none">
</g>
<g id="Icon">
	<g>
		<path d="M27.1,18.6c0-3.9-3.1-7-7-7s-7,3.1-7,7c0,3.9,3.1,7,7,7S27.1,22.4,27.1,18.6z M20.1,21.6c-1.7,0-3-1.3-3-3s1.3-3,3-3
			c1.7,0,3,1.3,3,3S21.7,21.6,20.1,21.6z"/>
		<path d="M4.1,14.6v8h5.8c-0.5-1.2-0.8-2.6-0.8-4s0.3-2.8,0.8-4H4.1z"/>
		<path d="M30.1,23c-1.1,2.5-3.1,4.5-5.7,5.7l5.8,5.8l5.7-5.7L30.1,23z"/>
	</g>
</g>
</svg>
