<svg xmlns="http://www.w3.org/2000/svg" width="40" height="40" xmlns:v="https://vecta.io/nano"><path d="M27 8h9V4H4v4h9v4h4.6c-1.7 1.5-4.1 4-6.2 7.5-2.3 4-5.9 11-3.7 13.3 1.7 1.7 2.9 2.3 5.1.7s3.2-.6 4.4.7c.8.9 1.6 1.8 2.9 1.8s2.1-1 2.9-1.8c1.2-1.3 2.1-2.3 4.1-.7 2.3 1.7 3.4.9 4.9-.7 1.8-1.9.6-7.1-3-13.3-2.1-3.5-4.6-6-6.3-7.5H27V8zM5 7V5h30v2h-8-14-8zm17 5.7c1.7 1.4 4.2 3.9 6.3 7.4 3.7 6.3 4.3 10.8 3.1 12.1-1.5 1.5-2 1.8-3.6.6-2.8-2.1-4.3-.5-5.5.8-.7.8-1.3 1.5-2.2 1.5-.8 0-1.4-.7-2.1-1.4-.8-.9-1.7-1.9-3.1-1.9-.7 0-1.6.3-2.6 1-1.7 1.2-2.3.9-3.8-.6-1-1-.5-4.7 3.8-12.1 2-3.5 4.4-5.9 6-7.3.5-.5 1.1-.7 1.8-.7h.1c.6-.1 1.3.1 1.8.6zm4-1.7h-5.8-.1H14V8h12v3zm-7 4h2v1h-2zm0 3h2v1h-2zm0 3h2v1h-2zm0 3h2v1h-2zm0 3h2v1h-2zm0 3h2v1h-2z"/></svg>