<?xml version="1.0" encoding="utf-8"?>
<!-- Generator: Adobe Illustrator 26.2.1, SVG Export Plug-In . SVG Version: 6.00 Build 0)  -->
<svg version="1.1" xmlns="http://www.w3.org/2000/svg" xmlns:xlink="http://www.w3.org/1999/xlink" x="0px" y="0px" width="40px"
	 height="40px" viewBox="0 0 40 40" enable-background="new 0 0 40 40" xml:space="preserve">
<g id="Fläche" display="none">
	<rect display="inline" fill="#FF7E90" width="40" height="40"/>
</g>
<g id="Rahmen" display="none">
</g>
<g id="Icon">
	<path d="M24.5,28.4l-0.1,1l6,0.5c-2.5,2.3-5.7,3.5-9.1,3.5c-3.6,0-7-1.4-9.5-4s-4-5.9-4-9.5s1.4-7,4-9.5s5.9-4,9.5-4
		c3.6,0,7,1.4,9.5,4l0.7-0.7c-2.7-2.7-6.4-4.2-10.3-4.2s-7.5,1.5-10.3,4.2C8.4,12.4,6.9,16,6.9,19.9s1.5,7.5,4.2,10.3
		c2.7,2.7,6.4,4.2,10.3,4.2c3.5,0,6.9-1.3,9.5-3.6l-0.5,5.6l1,0.1l0.7-7.5L24.5,28.4z"/>
</g>
</svg>
