<svg xmlns="http://www.w3.org/2000/svg" width="40" height="40" xmlns:v="https://vecta.io/nano"><path d="M26.8 18.9c.8-3.2-1.2-6.5-4.4-7.3-.5-.1-1-.2-1.4-.2-2.7 0-5.1 1.8-5.8 4.6-.8 3.2 1.2 6.5 4.4 7.3.5.1 1 .2 1.4.2 2.7 0 5.2-1.8 5.8-4.6zM21 22.5c-.4 0-.8 0-1.2-.1-1.3-.3-2.4-1.1-3.1-2.3-.7-1.1-.9-2.5-.6-3.8.6-2.2 2.5-3.8 4.8-3.8.4 0 .8 0 1.2.1 1.3.3 2.4 1.1 3.1 2.3.7 1.1.9 2.5.6 3.8-.5 2.2-2.5 3.8-4.8 3.8zm8.5-2.1c-.9 2.7-3 4.8-5.7 5.7l6.5 6.5 5.7-5.7-6.5-6.5zm-3.9 6a9.48 9.48 0 0 0 4.2-4.2l4.7 4.7-4.2 4.2-4.7-4.7zM4 13.5v8h8.9c-.6-1.2-.9-2.6-.9-4s.3-2.8.9-4H4zm7.5 7H5v-6h6.5c-.3 1-.5 2-.5 3s.2 2 .5 3zm8.5-4h2v2h-2z"/></svg>