<?xml version="1.0" encoding="utf-8"?>
<!-- Generator: Adobe Illustrator 26.2.1, SVG Export Plug-In . SVG Version: 6.00 Build 0)  -->
<svg version="1.1" xmlns="http://www.w3.org/2000/svg" xmlns:xlink="http://www.w3.org/1999/xlink" x="0px" y="0px" width="40px"
	 height="40px" viewBox="0 0 40 40" enable-background="new 0 0 40 40" xml:space="preserve">
<g id="Fläche" display="none">
	<rect display="inline" fill="#FF7E90" width="40" height="40"/>
</g>
<g id="Rahmen" display="none">
</g>
<g id="Icon">
	<g>
		<path d="M27,8h9V4H4v4h9v4h4.6c-1.7,1.5-4.1,4-6.2,7.5c-2.3,4-5.9,11-3.7,13.3c1.7,1.7,2.9,2.3,5.1,0.7c2.2-1.6,3.2-0.6,4.4,0.7
			c0.8,0.9,1.6,1.8,2.9,1.8c1.3,0,2.1-1,2.9-1.8c1.2-1.3,2.1-2.3,4.1-0.7c2.3,1.7,3.4,0.9,4.9-0.7c1.8-1.9,0.6-7.1-3-13.3
			c-2.1-3.5-4.6-6-6.3-7.5H27V8z M5,7V5h30v2h-8H13H5z M22,12.7c1.7,1.4,4.2,3.9,6.3,7.4c3.7,6.3,4.3,10.8,3.1,12.1
			c-1.5,1.5-2,1.8-3.6,0.6c-2.8-2.1-4.3-0.5-5.5,0.8c-0.7,0.8-1.3,1.5-2.2,1.5c-0.8,0-1.4-0.7-2.1-1.4c-0.8-0.9-1.7-1.9-3.1-1.9
			c-0.7,0-1.6,0.3-2.6,1c-1.7,1.2-2.3,0.9-3.8-0.6c-1-1-0.5-4.7,3.8-12.1c2-3.5,4.4-5.9,6-7.3c0.5-0.5,1.1-0.7,1.8-0.7h0.1
			C20.8,12,21.5,12.2,22,12.7z M26,11h-5.8c0,0-0.1,0-0.1,0H14V8h12V11z"/>
		<rect x="19" y="15" width="2" height="1"/>
		<rect x="19" y="18" width="2" height="1"/>
		<rect x="19" y="21" width="2" height="1"/>
		<rect x="19" y="24" width="2" height="1"/>
		<rect x="19" y="27" width="2" height="1"/>
		<rect x="19" y="30" width="2" height="1"/>
	</g>
</g>
</svg>
