<svg xmlns="http://www.w3.org/2000/svg" viewBox="0 0 40 40" xmlns:v="https://vecta.io/nano"><path d="M12.29 4L4 12.29V36h23.71L36 27.71V4H12.29zM35 27.29l-7 7V12.71l7-7v21.58zM5 34.58V13h7v.6h1V13h14v14h-.61v1H27v7H5.41L5 34.59zM34.29 5l-7 7H5.71l7-7H34.3zM14.91 27h.96v1h-.96zm2.87 0h.96v1h-.96zm11.48 0h.96v1h-.96zm2.87 0h.96v1h-.96zm-8.61 0h.96v1h-.96zm-2.87 0h.96v1h-.96zM12 27h1v1h-1zm0-2.87h1v.96h-1zm0-2.87h1v.96h-1zm0-2.87h1v.96h-1zm0-8.62h1v.96h-1zm0 5.74h1v.96h-1zm0-8.61h1v.96h-1zM5.987 33.313l.707-.707.707.707-.707.707zm3.67-3.684l.707-.707.707.707-.707.707zm-1.83 1.842l.707-.707.707.707-.707.707z"/></svg>