<?xml version="1.0" encoding="utf-8"?>
<!-- Generator: Adobe Illustrator 26.2.1, SVG Export Plug-In . SVG Version: 6.00 Build 0)  -->
<svg version="1.1" xmlns="http://www.w3.org/2000/svg" xmlns:xlink="http://www.w3.org/1999/xlink" x="0px" y="0px" width="40px"
	 height="40px" viewBox="0 0 40 40" enable-background="new 0 0 40 40" xml:space="preserve">
<g id="Fläche" display="none">
	<rect display="inline" fill="#FF7E90" width="40" height="40"/>
</g>
<g id="Rahmen" display="none">
</g>
<g id="Icon">
	<polygon points="30.4,14.6 29.6,15.4 33.8,19.5 20.5,19.5 20.5,6.2 24.6,10.4 25.4,9.6 20,4.3 14.6,9.6 15.4,10.4 19.5,6.2 
		19.5,19.5 6.2,19.5 10.4,15.4 9.6,14.6 4.3,20 9.6,25.4 10.4,24.6 6.2,20.5 19.5,20.5 19.5,33.8 15.4,29.6 14.6,30.4 20,35.7 
		25.4,30.4 24.6,29.6 20.5,33.8 20.5,20.5 33.8,20.5 29.6,24.6 30.4,25.4 35.7,20 	"/>
</g>
</svg>
