<svg xmlns="http://www.w3.org/2000/svg" viewBox="0 0 40 40" xmlns:v="https://vecta.io/nano"><path d="M29.5 15.74v-2.49a9.51 9.51 0 0 0-9.5-9.5 9.51 9.51 0 0 0-9.5 9.5v2.49H6v20h28v-20h-4.5zm-18-2.49a8.51 8.51 0 0 1 8.5-8.5 8.51 8.51 0 0 1 8.5 8.5v2.49h-17v-2.49zM33 34.74H7v-18h26v18zm-15.25-7.46v4.21h4.5v-4.21c1.09-.74 1.75-1.98 1.75-3.29a4 4 0 1 0-8 0c0 1.31.66 2.55 1.75 3.29zM20 20.99a3.01 3.01 0 0 1 3 3c0 1.07-.56 2.04-1.5 2.58l-.25.14v3.77h-2.5v-3.77l-.25-.14c-.94-.55-1.5-1.51-1.5-2.58a3.01 3.01 0 0 1 3-3z"/></svg>